<?xml version="1.0" encoding="UTF-8" standalone="no"?>
<!-- Generator: Adobe Illustrator 23.0.1, SVG Export Plug-In . SVG Version: 6.00 Build 0)  -->

<svg
   version="1.1"
   id="Layer_1"
   x="0px"
   y="0px"
   width="1000px"
   height="384.4px"
   viewBox="0 0 1000 384.4"
   style="enable-background:new 0 0 1000 384.4;"
   xml:space="preserve"
   sodipodi:docname="KAZETA-transparent.svg"
   inkscape:version="1.4.2 (ebf0e940d0, 2025-05-08)"
   xmlns:inkscape="http://www.inkscape.org/namespaces/inkscape"
   xmlns:sodipodi="http://sodipodi.sourceforge.net/DTD/sodipodi-0.dtd"
   xmlns="http://www.w3.org/2000/svg"
   xmlns:svg="http://www.w3.org/2000/svg"><defs
   id="defs24" /><sodipodi:namedview
   id="namedview24"
   pagecolor="#ffffff"
   bordercolor="#000000"
   borderopacity="0.25"
   inkscape:showpageshadow="2"
   inkscape:pageopacity="0.0"
   inkscape:pagecheckerboard="0"
   inkscape:deskcolor="#d1d1d1"
   inkscape:zoom="1.996"
   inkscape:cx="499.7495"
   inkscape:cy="192.38477"
   inkscape:window-width="2560"
   inkscape:window-height="1371"
   inkscape:window-x="0"
   inkscape:window-y="0"
   inkscape:window-maximized="1"
   inkscape:current-layer="Layer_1" />
<style
   type="text/css"
   id="style1">
	.st0{fill:#161C2B;}
	.st1{fill:url(#SVGID_1_);}
	.st2{fill:url(#SVGID_2_);}
	.st3{fill:url(#SVGID_3_);}
	.st4{fill:#F4E8D3;}
	.st5{fill:#161C2A;}
</style>

<g
   id="g24">
	<g
   id="g13">
		
			<linearGradient
   id="SVGID_1_"
   gradientUnits="userSpaceOnUse"
   x1="41.4001"
   y1="193.9"
   x2="958.4"
   y2="193.9"
   gradientTransform="matrix(1 0 0 -1 0 386)">
			<stop
   offset="0"
   style="stop-color:#6088D1"
   id="stop1" />
			<stop
   offset="0.1703"
   style="stop-color:#CA76D3"
   id="stop2" />
			<stop
   offset="0.3432"
   style="stop-color:#F18672"
   id="stop3" />
			<stop
   offset="0.5157"
   style="stop-color:#E9BD4C"
   id="stop4" />
			<stop
   offset="0.5757"
   style="stop-color:#D9CA58"
   id="stop5" />
			<stop
   offset="0.7865"
   style="stop-color:#6CBCA9"
   id="stop6" />
			<stop
   offset="0.9676"
   style="stop-color:#8583D5"
   id="stop7" />
		</linearGradient>
		<path
   class="st1"
   d="M710.9,331c-1.7,0-3.4-0.1-5.1-0.2c-17.3-1.1-33.1-7.9-45.6-18.6C646.6,324,628.9,331,609.9,331h-47.6    c-15.5,0-30.7-3.7-44.4-10.7c-11.6,6.3-24.6,9.7-37.9,9.7h-69.7c-12.2,0-24.2-2.7-35-7.8c-10.5,5.1-22,7.8-33.9,7.8    c-1.7,0-3.4-0.1-5.1-0.2c-11.1-0.7-21.8-3.8-31.4-9c-11.2,6-23.7,9.2-36.5,9.2c-1.7,0-3.4-0.1-5.1-0.2c-9.4-0.6-18.5-2.9-27-6.8    c-10.2,4.7-21.3,7.1-32.7,7.1c-14.7,0-28.9-4-41.2-11.4c-12.5,7.9-27.1,12.2-42.1,12.2c-1.7,0-3.4-0.1-5.2-0.2    c-41.3-2.7-73.7-37.6-73.7-79.6v-119c0-43.5,35.4-78.9,78.9-78.9c1.7,0,3.4,0.1,5.1,0.2c13.4,0.9,26.1,5.1,37.1,12.2    c12.4-7.8,26.9-12,42-12c16.2,0,31.8,5,45,14.1c16.8-9.4,35.9-14.4,55.4-14.4c20.5,0,40.3,5.4,57.6,15.6    c13.2-9.2,29.1-14.4,45.7-14.4h67.1c15,0,29.4,3.9,42,11.2c13.8-7.2,29.2-11,45-11h44.6c10.8,0,21.3,2.2,31,6.5    c9.8-4.3,20.3-6.5,31.2-6.5h82.4c14.4,0,28.4,4,40.5,11.3c16.1-8.3,34.1-12.7,52.3-12.7c62.9,0,114.1,51.2,114.1,114.1v85    c0,20.7-8.1,40.2-22.7,54.9C921,322,901.6,330,880.8,330c-1.7,0-3.4-0.1-5.1-0.2c-11.1-0.7-21.8-3.8-31.4-9    c-11.2,6-23.7,9.2-36.5,9.2c-1.7,0-3.4-0.1-5.1-0.2c-15.9-1-30.6-6.8-42.5-16.2C746.7,324.7,729.5,331,710.9,331z"
   id="path7" />
		
			<linearGradient
   id="SVGID_2_"
   gradientUnits="userSpaceOnUse"
   x1="375.8689"
   y1="-72.135"
   x2="619.1077"
   y2="449.4923"
   gradientTransform="matrix(1 0 0 -1 0 386)">
			<stop
   offset="0"
   style="stop-color:#C866EB"
   id="stop8" />
			<stop
   offset="3.360748e-02"
   style="stop-color:#C961E1;stop-opacity:0.8677"
   id="stop9" />
			<stop
   offset="9.095526e-02"
   style="stop-color:#CD53C6;stop-opacity:0.6419"
   id="stop10" />
			<stop
   offset="0.1651"
   style="stop-color:#D23C9A;stop-opacity:0.3501"
   id="stop11" />
			<stop
   offset="0.2523"
   style="stop-color:#DA1D5D;stop-opacity:6.802917e-03"
   id="stop12" />
			<stop
   offset="0.254"
   style="stop-color:#DA1C5C;stop-opacity:0"
   id="stop13" />
		</linearGradient>
		<path
   class="st2"
   d="M710.9,331c-1.7,0-3.4-0.1-5.1-0.2c-17.3-1.1-33.1-7.9-45.6-18.6C646.6,324,628.9,331,609.9,331h-47.6    c-15.5,0-30.7-3.7-44.4-10.7c-11.6,6.3-24.6,9.7-37.9,9.7h-69.7c-12.2,0-24.2-2.7-35-7.8c-10.5,5.1-22,7.8-33.9,7.8    c-1.7,0-3.4-0.1-5.1-0.2c-11.1-0.7-21.8-3.8-31.4-9c-11.2,6-23.7,9.2-36.5,9.2c-1.7,0-3.4-0.1-5.1-0.2c-9.4-0.6-18.5-2.9-27-6.8    c-10.2,4.7-21.3,7.1-32.7,7.1c-14.7,0-28.9-4-41.2-11.4c-12.5,7.9-27.1,12.2-42.1,12.2c-1.7,0-3.4-0.1-5.2-0.2    c-41.3-2.7-73.7-37.6-73.7-79.6v-119c0-43.5,35.4-78.9,78.9-78.9c1.7,0,3.4,0.1,5.1,0.2c13.4,0.9,26.1,5.1,37.1,12.2    c12.4-7.8,26.9-12,42-12c16.2,0,31.8,5,45,14.1c16.8-9.4,35.9-14.4,55.4-14.4c20.5,0,40.3,5.4,57.6,15.6    c13.2-9.2,29.1-14.4,45.7-14.4h67.1c15,0,29.4,3.9,42,11.2c13.8-7.2,29.2-11,45-11h44.6c10.8,0,21.3,2.2,31,6.5    c9.8-4.3,20.3-6.5,31.2-6.5h82.4c14.4,0,28.4,4,40.5,11.3c16.1-8.3,34.1-12.7,52.3-12.7c62.9,0,114.1,51.2,114.1,114.1v85    c0,20.7-8.1,40.2-22.7,54.9C921,322,901.6,330,880.8,330c-1.7,0-3.4-0.1-5.1-0.2c-11.1-0.7-21.8-3.8-31.4-9    c-11.2,6-23.7,9.2-36.5,9.2c-1.7,0-3.4-0.1-5.1-0.2c-15.9-1-30.6-6.8-42.5-16.2C746.7,324.7,729.5,331,710.9,331z"
   id="path13" />
	</g>
	<g
   id="g16">
		
			<linearGradient
   id="SVGID_3_"
   gradientUnits="userSpaceOnUse"
   x1="866.7513"
   y1="-51.9154"
   x2="169.4804"
   y2="400.8976"
   gradientTransform="matrix(1 0 0 -1 0 386)">
			<stop
   offset="0"
   style="stop-color:#4EADD3"
   id="stop14" />
			<stop
   offset="7.152374e-02"
   style="stop-color:#47AAD6"
   id="stop15" />
			<stop
   offset="0.1307"
   style="stop-color:#55B4C2;stop-opacity:0"
   id="stop16" />
		</linearGradient>
		<path
   class="st3"
   d="M710.9,330.6c-1.7,0-3.4-0.1-5.1-0.2c-17.3-1.1-33.1-7.9-45.6-18.6c-13.6,11.7-31.3,18.8-50.3,18.8h-47.6    c-15.5,0-30.7-3.7-44.4-10.7c-11.6,6.3-24.6,9.7-37.9,9.7h-69.7c-12.2,0-24.2-2.7-35-7.8c-10.5,5.1-22,7.8-33.9,7.8    c-1.7,0-3.4-0.1-5.1-0.2c-11.1-0.7-21.8-3.8-31.4-9c-11.2,6-23.7,9.2-36.5,9.2c-1.7,0-3.4-0.1-5.1-0.2c-9.4-0.6-18.5-2.9-27-6.8    c-10.2,4.7-21.3,7.1-32.7,7.1c-14.7,0-28.9-4-41.2-11.4c-12.5,7.9-27.1,12.2-42.1,12.2c-1.7,0-3.4-0.1-5.2-0.2    c-41.3-2.7-73.7-37.6-73.7-79.6v-119c0-43.5,35.4-78.9,78.9-78.9c1.7,0,3.4,0.1,5.1,0.2c13.4,0.9,26.1,5.1,37.1,12.2    c12.4-7.8,26.9-12,42-12c16.2,0,31.8,5,45,14.1c16.8-9.4,35.9-14.4,55.4-14.4c20.5,0,40.3,5.4,57.6,15.6    c13.2-9.2,29.1-14.4,45.7-14.4h67.1c15,0,29.4,3.9,42,11.2c13.8-7.2,29.2-11,45-11h44.6c10.8,0,21.3,2.2,31,6.5    c9.8-4.3,20.3-6.5,31.2-6.5h82.4c14.4,0,28.4,4,40.5,11.3c16.1-8.3,34.1-12.7,52.3-12.7c62.9,0,114.1,51.2,114.1,114.1v85    c0,20.7-8.1,40.2-22.7,54.9c-14.7,14.7-34.1,22.7-54.9,22.7c-1.7,0-3.4-0.1-5.1-0.2c-11.1-0.7-21.8-3.8-31.4-9    c-11.2,6-23.7,9.2-36.5,9.2c-1.7,0-3.4-0.1-5.1-0.2c-15.9-1-30.6-6.8-42.5-16.2C746.6,324.2,729.4,330.6,710.9,330.6z"
   id="path16" />
	</g>
	<path
   class="st4"
   d="M844.4,80.5c-20.5,0-39.3,7.1-54.2,19c-9.4-10.8-23.2-17.6-38.6-17.6h-82.4c-11.8,0-22.6,4-31.3,10.7   c-8.6-6.7-19.3-10.7-31-10.7h-44.6c-17.6,0-33.7,6.5-46,17.2c-10.6-10.9-25.2-17.3-41-17.3h-67.1c-18,0-33.9,9.1-43.3,22.8   c-15.6-14.9-36.7-24.1-60-24.1c-22.3,0-42.7,8.5-58.2,22.4c-2.1-3.1-4.6-5.9-7.4-8.5c-9.6-8.7-22-13.5-34.9-13.5   c-15.8,0-30.5,7.1-40.4,19.4l-1.8,2.2c-8.8-12.4-22.7-20.8-38.6-21.8c-1.1-0.1-2.3-0.1-3.4-0.1c-28.5,0-51.7,23.2-51.7,51.7v119   c0,27.7,21.2,50.7,48.3,52.5c1.1,0.1,2.3,0.1,3.4,0.1c17.1,0,32.2-8.3,41.7-21.1l0.8,1c10.1,12.2,25,19.2,40.8,19.2   c10.8,0,21.2-3.3,29.9-9.7c1-0.7,1.9-1.5,2.8-2.3c7.9,6.7,17.8,11,28.8,11.7c1.1,0.1,2.2,0.1,3.3,0.1c14.4,0,27.4-6.1,36.6-15.8   c8.4,9,20.1,14.9,33.1,15.7c1.1,0.1,2.2,0.1,3.3,0.1l0,0c12.5,0,24.3-4.6,33.5-12.8c9.7,8.2,22.2,12.8,35.4,12.8h69.7   c13.9,0,27.3-5.7,37-15.6c12.2,10.3,28,16.5,45.2,16.5h47.6c26.3,0,47.9-20.3,50.1-46c2.9,24.6,22.7,44.3,47.5,45.9   c1.1,0.1,2.3,0.1,3.4,0.1c23.1,0,42.6-15.3,49-36.3c6.3,19.4,23.6,33.9,44.6,35.3c1.1,0.1,2.2,0.1,3.3,0.1   c14.4,0,27.4-6.1,36.6-15.8c8.4,9,20.1,14.9,33.1,15.7c1.1,0.1,2.2,0.1,3.3,0.1l0,0c13.5,0,26.1-5.2,35.7-14.8   c9.5-9.5,14.8-22.2,14.8-35.7v-85C931.3,119.5,892.3,80.5,844.4,80.5z"
   id="path17"
   style="fill:#f9f9f9" />
	<g
   id="g23">
		<path
   class="st5"
   d="M751.6,108h-82.4c-13.9,0-25.2,11.3-25.2,25.2l0,0c0,13.9,11.3,25.2,25.2,25.2H680c3.2,0,5.7,2.6,5.7,5.7    v87.7c0,13.4,10.1,25.1,23.5,26c14.7,0.9,26.9-10.7,26.9-25.1v-88.5c0-3.2,2.6-5.7,5.7-5.7h9.8c13.9,0,25.2-11.3,25.2-25.2    S765.5,108,751.6,108z"
   id="path18" />
		<path
   class="st5"
   d="M224,149.3c8.5-10.7,7.9-26.4-2.1-35.6c-11.1-10.1-28.1-8.6-37.3,2.9l-29.4,36.7c-3,3.8-9.1,1.6-9.1-3.2    v-16.9c0-13.7-10.3-25.6-23.9-26.5c-14.9-1-27.4,10.9-27.4,25.6v119c0,13.7,10.3,25.6,23.9,26.5c14.9,1,27.3-10.9,27.3-25.6v-11    c0-6.3,7.9-9.1,11.9-4.3l25.1,30.3c8.7,10.5,24.3,13.1,35.3,5.1c12.1-8.8,14.1-25.8,4.7-37.2l-30.6-36.9c-2.3-2.7-2.3-6.6-0.1-9.4    L224,149.3z"
   id="path19" />
		<path
   class="st5"
   d="M606.9,108h-38.2h-4h-2.4c-24.5,0-44.3,19.8-44.3,44.3v81.1c0,24.5,19.8,44.3,44.3,44.3h2.4h3.8h38.3    c13.4,0,24.3-10.9,24.3-24.3l0,0c0-13.4-10.9-24.3-24.3-24.3h-32.2c-3.3,0-6-2.7-6-6s2.7-6,6-6h30.9c13.4,0,24.3-10.9,24.3-24.3    l0,0c0-13.4-10.9-24.3-24.3-24.3h-30.9c-3.3,0-6-2.7-6-6s2.7-6,6-6h32.2c13.4,0,24.3-10.9,24.3-24.3l0,0    C631.2,118.9,620.3,108,606.9,108z"
   id="path20" />
		<path
   class="st5"
   d="M500.7,156.8c14.5-20.6-0.2-48.9-25.3-48.9l0,0h-67.1c-13.4,0-25.1,10.1-25.9,23.5    c-0.9,14.6,10.6,26.8,25.1,26.8H429c3.9,0,6.2,4.5,4,7.7L386.8,231c-13.7,19.3,0.1,46,23.7,46h5.9h63.8    c14.9,0,26.8-12.5,25.8-27.6c-0.9-13.8-12.9-24.2-26.7-24.2h-17.7c-3.8,0-6-4.3-3.8-7.4L500.7,156.8z"
   id="path21" />
		<path
   class="st5"
   d="M305,107.1L305,107.1c-33.6,0-60.9,27.2-60.9,60.9v84.2c0,13,9.8,24.3,22.7,25.1c14.2,0.9,26-10.3,26-24.3    v-2.1c0-5.9,4.8-10.8,10.8-10.8h2.8c5.9,0,10.8,4.8,10.8,10.8v1.3c0,13,9.8,24.3,22.7,25.1c14.2,0.9,26-10.3,26-24.3v-85    C365.9,134.3,338.6,107.1,305,107.1z M317.2,187.7c0,1-0.1,1.9-0.4,2.8c-1.2,4.1-5,7-9.4,7h-4.7c-5.4,0-9.8-4.4-9.8-9.8v-17.9    c0-6.4,4.6-12,11-12.6c7.3-0.7,13.4,5,13.4,12.1L317.2,187.7z"
   id="path22" />
		<path
   class="st5"
   d="M844.4,106.6L844.4,106.6c-33.6,0-60.9,27.2-60.9,60.9v84.2c0,13,9.8,24.3,22.7,25.1    c14.2,0.9,26-10.3,26-24.3v-2.1c0-5.9,4.8-10.8,10.8-10.8h2.8c5.9,0,10.8,4.8,10.8,10.8v1.3c0,13,9.8,24.3,22.7,25.1    c14.2,0.9,26-10.3,26-24.3v-85C905.2,133.8,878,106.6,844.4,106.6z M856.1,190.1c-1.2,4.1-5,6.9-9.4,6.9H842    c-5.4,0-9.8-4.4-9.8-9.8v-17.9c0-6.4,4.6-12,11-12.6c7.3-0.7,13.4,5,13.4,12.1c0,0,0,11.8,0,15.3S856.6,188.5,856.1,190.1z"
   id="path23" />
	</g>
</g>
</svg>
